<?xml version="1.0" encoding="UTF-8"?>
<svg version="1.1" xmlns="http://www.w3.org/2000/svg" width="800" height="800">
<path d="M0 0 C264 0 528 0 800 0 C800 264 800 528 800 800 C536 800 272 800 0 800 C0 536 0 272 0 0 Z " fill="#FDFDFD" transform="translate(0,0)"/>
<path d="M0 0 C0.33 0 0.66 0 1 0 C1.22740695 8.88904139 0.51325804 17.62640103 -0.35546875 26.4609375 C-0.49912194 27.95981744 -0.64238233 29.45873506 -0.78527832 30.95768738 C-1.16675413 34.94215553 -1.55529058 38.92590223 -1.94601059 42.90947342 C-2.18839101 45.38409692 -2.42911394 47.85887641 -2.66934204 50.33370972 C-10.33949305 129.30355274 -10.33949305 129.30355274 -15 153 C-15.15823242 153.81355957 -15.31646484 154.62711914 -15.47949219 155.46533203 C-16.41123878 160.19682816 -17.40943358 164.91005218 -18.46582031 169.61523438 C-18.83274473 171.25331377 -19.1937565 172.89272535 -19.54980469 174.53320312 C-22.42567243 187.74932513 -26.22003207 200.35139284 -31 213 C-31.30276855 213.81823242 -31.60553711 214.63646484 -31.91748047 215.47949219 C-38.92917638 234.34314418 -47.6838949 252.03042342 -60 268 C-61.00105343 269.33254261 -62.00153676 270.66551548 -63 272 C-56.12785952 287.8640457 -26.82591365 298.50296092 -12 305 C-10.84886719 305.50917969 -9.69773437 306.01835937 -8.51171875 306.54296875 C-1.17170114 309.51755403 4.4054083 309.14693654 11.7421875 306.28515625 C13.4591784 305.55840969 15.16993226 304.81679592 16.875 304.0625 C17.79337646 303.65990967 18.71175293 303.25731934 19.65795898 302.8425293 C32.90305332 296.92548077 45.10608982 289.83150815 57.0625 281.625 C57.93849854 281.02985596 58.81449707 280.43471191 59.71704102 279.8215332 C60.52326904 279.25394287 61.32949707 278.68635254 62.16015625 278.1015625 C62.87824463 277.59963379 63.59633301 277.09770508 64.33618164 276.58056641 C66.27807208 274.73584172 66.77118138 273.65329381 67 271 C65.49341306 268.73310978 65.49341306 268.73310978 63.25 266.4375 C47.58746166 248.14423982 38.75027506 224.46939613 31 202 C30.73840088 201.26048096 30.47680176 200.52096191 30.20727539 199.7590332 C28.094554 193.66025152 26.54422715 187.46611204 25.0625 181.1875 C24.80162598 180.08510986 24.54075195 178.98271973 24.27197266 177.84692383 C20.04511241 159.80649654 16.93456734 141.79091979 14.46386719 123.42382812 C14.1671388 121.23366026 13.86136383 119.04468695 13.54394531 116.85742188 C11.67691698 103.66888773 10.49444595 90.40122119 9.19787598 77.1472168 C8.61434563 71.18375983 8.0271398 65.22066861 7.4375 59.2578125 C7.31297455 57.99779419 7.1884491 56.73777588 7.06015015 55.4395752 C6.26054518 47.41974005 5.38816381 39.41437408 4.39306641 31.41650391 C3.19042314 20.96321828 2.84037713 10.51737357 3 0 C3.33 0 3.66 0 4 0 C4.25523437 1.83111328 4.25523437 1.83111328 4.515625 3.69921875 C9.24975204 36.43108655 25.99404753 64.44045532 48.55078125 88.375 C50.50960828 90.47441271 52.39245838 92.60306099 54.265625 94.77734375 C58.14167935 99.22575395 62.25548077 103.40306594 66.4375 107.5625 C67.50581055 108.63661133 67.50581055 108.63661133 68.59570312 109.73242188 C72.66182203 113.79115455 76.82453947 117.67466224 81.17602539 121.42553711 C83.66056409 123.57020182 86.07945264 125.78359519 88.5 128 C91.59731967 130.82577384 94.7040415 133.63218779 97.875 136.375 C103.19643941 141.00662319 108.37220701 145.7972487 113.52246094 150.61767578 C114.75309724 151.76900803 115.98915874 152.91453799 117.2265625 154.05859375 C133.34838961 169.4837987 150.69147101 193.65832204 152.171875 216.671875 C152.18498129 218.78198719 152.10365273 220.89239441 152 223 C151.15179687 223.08636719 150.30359375 223.17273438 149.4296875 223.26171875 C121.23074127 226.63939473 99.45954378 242.41690356 80 262 C77.33333333 264.66666667 74.66666667 267.33333333 72 270 C75.03120238 268.54512696 77.85858148 266.89259239 80.703125 265.1015625 C81.60160156 264.53953125 82.50007813 263.9775 83.42578125 263.3984375 C85.29386959 262.22539171 87.16107253 261.05093461 89.02734375 259.875 C99.4166152 253.38355792 110.09532563 248.56793034 121.625 244.4375 C122.43839844 244.13392578 123.25179688 243.83035156 124.08984375 243.51757812 C135.87319319 239.31185698 147.75942588 238.60880858 160.1875 238.625 C160.86465057 238.62521149 161.54180115 238.62542297 162.23947144 238.62564087 C173.3201674 238.66006361 183.42162739 239.68537032 194 243 C195.17433594 243.33902344 196.34867188 243.67804688 197.55859375 244.02734375 C224.20387809 252.52600993 247.80997903 272.05407117 268.66015625 290.125 C272.45465798 293.40743345 276.34016993 296.57214498 280.23828125 299.73046875 C282.19496203 301.33843415 284.12653516 302.95897567 286.04296875 304.61328125 C308.06550014 323.6141086 330.39345027 338.9789235 360 342 C360 343.65 360 345.3 360 347 C358.99582031 347.09796875 357.99164062 347.1959375 356.95703125 347.296875 C324.70606281 350.70403056 301.8480933 370.51720404 277.98779297 390.77441406 C258.93777917 406.94403332 239.7184929 422.52461218 218 435 C217.35224609 435.38269043 216.70449219 435.76538086 216.03710938 436.15966797 C207.01029363 441.47953956 198.08901302 444.93446192 187.93261719 447.49609375 C186.24563079 447.93595478 184.57741544 448.44658351 182.9140625 448.96875 C163.79865581 454.50350582 139.53884242 452.30130612 121.41430664 444.05053711 C118.93318339 442.97092609 116.43372199 442.08564845 113.875 441.20703125 C108.1533549 439.14300217 102.85635412 436.55489202 97.5 433.6875 C96.58871338 433.20547119 95.67742676 432.72344238 94.73852539 432.22680664 C89.00791275 429.1647839 83.45456617 425.96373984 78.05859375 422.33984375 C76.09168376 421.05967273 74.10505416 420.03069384 72 419 C85.78226483 433.40083705 99.40015775 445.49504068 117 455 C117.70382812 455.38671875 118.40765625 455.7734375 119.1328125 456.171875 C121.06352646 457.18804024 123.00680153 458.11285386 125 459 C125.78246094 459.34933594 126.56492187 459.69867187 127.37109375 460.05859375 C135.39320328 463.31273328 143.45515477 464.18518414 152 465 C153.77968839 486.45513231 139.98867678 507.01001277 126.68359375 522.73828125 C124.48922023 525.19216329 122.24917085 527.59639664 120 530 C118.47787457 531.72802939 116.95704258 533.45719895 115.4375 535.1875 C112.19960344 538.78329877 108.85788761 542.03636584 105.1640625 545.15625 C102.55439863 547.37964593 100.02981658 549.68622836 97.5 552 C92.03316074 556.9807318 86.52143923 561.89172648 80.8515625 566.640625 C72.97079845 573.27024585 65.57069454 580.2121711 58.38183594 587.58520508 C55.32044408 590.719616 52.21109394 593.80149088 49.0546875 596.83984375 C41.27884662 604.37554658 34.37245549 612.2465222 28 621 C27.57090332 621.58475098 27.14180664 622.16950195 26.69970703 622.77197266 C16.90914226 636.27709476 8.55511231 651.35055849 6 668 C5.79890625 669.2890625 5.5978125 670.578125 5.390625 671.90625 C4.89316178 675.267488 4.42952301 678.62950766 4 682 C2.35 682 0.7 682 -1 682 C-1.02578125 681.07960938 -1.0515625 680.15921875 -1.078125 679.2109375 C-2.30935772 651.73206173 -17.04790143 628.0673846 -35 608 C-36.16746612 606.64652251 -37.33424261 605.29244952 -38.5 603.9375 C-39.6626809 602.6214679 -40.82985 601.30939541 -42 600 C-42.85464844 599.0409375 -43.70929688 598.081875 -44.58984375 597.09375 C-49.21013836 591.95403295 -53.86872781 587.02584433 -59.171875 582.57421875 C-61.04463491 580.96156438 -62.77042577 579.26463317 -64.5 577.5 C-67.48872337 574.46405075 -70.61706479 571.65491341 -73.84375 568.875 C-76.19962958 566.82640906 -78.5050746 564.72796998 -80.8125 562.625 C-84.24445141 559.51790506 -87.75272152 556.56968705 -91.375 553.6875 C-97.71149713 548.5660982 -103.32191716 542.82450904 -109 537 C-112.29449163 533.678129 -112.29449163 533.678129 -115.66796875 530.4375 C-131.20045901 515.74352464 -144.74957415 494.24668603 -148 473 C-148.04450328 470.66709111 -148.05567928 468.33266891 -148 466 C-146.81664062 465.75765625 -145.63328125 465.5153125 -144.4140625 465.265625 C-131.87906247 462.65980919 -131.87906247 462.65980919 -120 458 C-119.37770508 457.69433105 -118.75541016 457.38866211 -118.11425781 457.07373047 C-108.82591779 452.45970343 -100.09046561 447.54392867 -92 441 C-91.45778809 440.56316895 -90.91557617 440.12633789 -90.35693359 439.67626953 C-81.81941074 432.74295365 -74.21009251 425.29896362 -67 417 C-67.79019531 417.46148437 -68.58039063 417.92296875 -69.39453125 418.3984375 C-76.50392356 422.50969751 -83.67510475 426.47734237 -90.9375 430.3125 C-91.72938721 430.73257324 -92.52127441 431.15264648 -93.3371582 431.58544922 C-97.81721492 433.93720735 -102.31457843 436.07708132 -107 438 C-108.70542969 438.70769531 -108.70542969 438.70769531 -110.4453125 439.4296875 C-129.74998155 447.01220082 -156.93863124 455.67822087 -177 447 C-179.52122486 446.52226517 -182.03009389 446.09056834 -184.5625 445.6875 C-215.11938951 440.30818169 -242.21002138 416.60847219 -265.12182617 397.13061523 C-269.35538506 393.53410027 -273.63337483 389.99764486 -277.94921875 386.5 C-280.26349189 384.60354058 -282.55266085 382.68760468 -284.83203125 380.75 C-306.84765325 362.13571148 -328.00764519 349.0575064 -357 346 C-357 345.01 -357 344.02 -357 343 C-356.44763672 342.94577881 -355.89527344 342.89155762 -355.32617188 342.83569336 C-324.46884531 339.61766024 -303.06111484 323.24896179 -280.078125 303.61328125 C-277.2729268 301.22117731 -274.42536843 298.88544149 -271.5625 296.5625 C-268.6220471 294.17629074 -265.71474482 291.76588195 -262.87109375 289.265625 C-229.33562694 259.81527103 -192.85675588 237.5411071 -147 240 C-140.30853927 240.50676372 -134.22399182 241.46936596 -128 244 C-126.15227248 244.46394319 -124.29739558 244.90003336 -122.4375 245.3125 C-115.96294005 246.8895348 -110.08630034 249.32547884 -104 252 C-101.83487674 252.89955716 -99.6682357 253.79547099 -97.5 254.6875 C-94.26860912 256.02088307 -91.10632623 257.3955532 -88 259 C-88 259.66 -88 260.32 -88 261 C-87.32582031 261.24492187 -86.65164063 261.48984375 -85.95703125 261.7421875 C-82.35909286 263.27261836 -79.06123937 265.15843308 -75.6875 267.125 C-75.04232422 267.49753906 -74.39714844 267.87007813 -73.73242188 268.25390625 C-72.15324055 269.16632213 -70.57638136 270.08275509 -69 271 C-69 267.5735302 -75.7483803 262.43658688 -78 260 C-78.89912109 259.00033203 -78.89912109 259.00033203 -79.81640625 257.98046875 C-88.85330138 248.37750413 -100.44601805 240.27336862 -112 234 C-112.61230469 233.64808594 -113.22460938 233.29617188 -113.85546875 232.93359375 C-124.39587263 227.20267053 -136.16511272 224.33716264 -148 223 C-147.43408001 192.4917677 -127.17230902 167.57607317 -106.28515625 147.15234375 C-103.66847824 144.68774617 -100.99219459 142.31380551 -98.26171875 139.9765625 C-95.28614721 137.37614938 -92.39582599 134.68856924 -89.5 132 C-86.01573746 128.76849983 -82.52957453 125.54963138 -78.9375 122.4375 C-66.26683838 111.43682098 -53.71775343 99.94425211 -43 87 C-42.55221191 86.47132324 -42.10442383 85.94264648 -41.64306641 85.39794922 C-19.89694184 59.69545982 -4.77072476 33.51143248 0 0 Z " fill="#FBFBFC" transform="translate(400,53)"/>
<path d="M0 0 C0.33 0 0.66 0 1 0 C1.17015625 1.22074219 1.3403125 2.44148438 1.515625 3.69921875 C6.24975204 36.43108655 22.99404753 64.44045532 45.55078125 88.375 C47.50960828 90.47441271 49.39245838 92.60306099 51.265625 94.77734375 C55.14167935 99.22575395 59.25548077 103.40306594 63.4375 107.5625 C64.14970703 108.27857422 64.86191406 108.99464844 65.59570312 109.73242188 C69.66182203 113.79115455 73.82453947 117.67466224 78.17602539 121.42553711 C80.66056409 123.57020182 83.07945264 125.78359519 85.5 128 C88.59731967 130.82577384 91.7040415 133.63218779 94.875 136.375 C100.19643941 141.00662319 105.37220701 145.7972487 110.52246094 150.61767578 C111.75309724 151.76900803 112.98915874 152.91453799 114.2265625 154.05859375 C130.34838961 169.4837987 147.69147101 193.65832204 149.171875 216.671875 C149.18498129 218.78198719 149.10365273 220.89239441 149 223 C148.15179687 223.08636719 147.30359375 223.17273438 146.4296875 223.26171875 C118.23074127 226.63939473 96.45954378 242.41690356 77 262 C74.33333333 264.66666667 71.66666667 267.33333333 69 270 C72.03120238 268.54512696 74.85858148 266.89259239 77.703125 265.1015625 C78.60160156 264.53953125 79.50007813 263.9775 80.42578125 263.3984375 C82.29386959 262.22539171 84.16107253 261.05093461 86.02734375 259.875 C96.4166152 253.38355792 107.09532563 248.56793034 118.625 244.4375 C119.43839844 244.13392578 120.25179687 243.83035156 121.08984375 243.51757812 C132.87319319 239.31185698 144.75942588 238.60880858 157.1875 238.625 C157.86465057 238.62521149 158.54180115 238.62542297 159.23947144 238.62564087 C170.3201674 238.66006361 180.42162739 239.68537032 191 243 C192.17433594 243.33902344 193.34867188 243.67804688 194.55859375 244.02734375 C221.20387809 252.52600993 244.80997903 272.05407117 265.66015625 290.125 C269.45465798 293.40743345 273.34016993 296.57214498 277.23828125 299.73046875 C279.19496203 301.33843415 281.12653516 302.95897567 283.04296875 304.61328125 C305.06550014 323.6141086 327.39345027 338.9789235 357 342 C357 342.33 357 342.66 357 343 C345.63382809 343.26363114 334.39383185 342.4430735 323.06640625 341.609375 C321.02369317 341.46178563 318.98096308 341.31443153 316.93821716 341.16729736 C312.65559702 340.85768067 308.37325217 340.54454298 304.09106445 340.22900391 C299.78378712 339.91190817 295.4762097 339.59964616 291.16821289 339.29248047 C269.73138617 337.76384408 248.3114182 336.17076447 226.9375 333.91015625 C226.18297106 333.83071022 225.42844212 333.75126419 224.65104866 333.66941071 C177.6525819 328.67370312 124.63331831 320.39212589 86 291 C84.83597656 290.14535156 84.83597656 290.14535156 83.6484375 289.2734375 C81.38301632 287.5685329 79.18563102 285.80585825 77 284 C76.21109375 283.35804688 75.4221875 282.71609375 74.609375 282.0546875 C50.70175385 261.68058268 37.88399552 231.00260893 28 202 C27.74130127 201.26628174 27.48260254 200.53256348 27.21606445 199.77661133 C25.10028677 193.67143324 23.54585863 187.47302524 22.0625 181.1875 C21.80162598 180.08510986 21.54075195 178.98271973 21.27197266 177.84692383 C17.04511241 159.80649654 13.93456734 141.79091979 11.46386719 123.42382812 C11.1671388 121.23366026 10.86136383 119.04468695 10.54394531 116.85742188 C8.67691698 103.66888773 7.49444595 90.40122119 6.19787598 77.1472168 C5.61434563 71.18375983 5.0271398 65.22066861 4.4375 59.2578125 C4.31297455 57.99779419 4.1884491 56.73777588 4.06015015 55.4395752 C3.26054518 47.41974005 2.38816381 39.41437408 1.39306641 31.41650391 C0.19042314 20.96321828 -0.15962287 10.51737357 0 0 Z " fill="#022145" transform="translate(403,53)"/>
<path d="M0 0 C0.33 0 0.66 0 1 0 C1.22740695 8.88904139 0.51325804 17.62640103 -0.35546875 26.4609375 C-0.49912194 27.95981744 -0.64238233 29.45873506 -0.78527832 30.95768738 C-1.16675413 34.94215553 -1.55529058 38.92590223 -1.94601059 42.90947342 C-2.18839101 45.38409692 -2.42911394 47.85887641 -2.66934204 50.33370972 C-10.33949305 129.30355274 -10.33949305 129.30355274 -15 153 C-15.15823242 153.81355957 -15.31646484 154.62711914 -15.47949219 155.46533203 C-16.41123878 160.19682816 -17.40943358 164.91005218 -18.46582031 169.61523438 C-18.83274473 171.25331377 -19.1937565 172.89272535 -19.54980469 174.53320312 C-22.42567243 187.74932513 -26.22003207 200.35139284 -31 213 C-31.30276855 213.81823242 -31.60553711 214.63646484 -31.91748047 215.47949219 C-40.57457618 238.76978357 -51.76694261 259.93308499 -69 278 C-69.95519531 279.08474609 -69.95519531 279.08474609 -70.9296875 280.19140625 C-88.45727929 299.25351483 -115.11725604 309.71678363 -139 318 C-140.73080811 318.61742065 -140.73080811 318.61742065 -142.49658203 319.24731445 C-150.99696782 322.20350883 -159.45910666 324.40174543 -168.28466797 326.14819336 C-170.34191508 326.55594252 -172.39556696 326.97885188 -174.44921875 327.40429688 C-196.39410198 331.88885506 -218.3758247 334.75353891 -240.6875 336.625 C-243.18167689 336.84056382 -245.67581723 337.05655111 -248.16992188 337.27294922 C-262.67088084 338.52010222 -277.1710892 339.6534429 -291.69921875 340.53125 C-297.49890303 340.88698812 -303.2897387 341.3234518 -309.08203125 341.78125 C-309.96792938 341.8506076 -310.85382751 341.91996521 -311.76657104 341.99142456 C-317.05679075 342.40559779 -317.05679075 342.40559779 -322.34594727 342.83306885 C-333.59258139 343.75601363 -344.71529391 344.17919415 -356 344 C-356 343.67 -356 343.34 -356 343 C-354.741875 342.86464844 -353.48375 342.72929687 -352.1875 342.58984375 C-322.97696752 339.07482388 -301.84185371 322.20727738 -280.078125 303.61328125 C-277.2729268 301.22117731 -274.42536843 298.88544149 -271.5625 296.5625 C-268.6220471 294.17629074 -265.71474482 291.76588195 -262.87109375 289.265625 C-229.33562694 259.81527103 -192.85675588 237.5411071 -147 240 C-140.30853927 240.50676372 -134.22399182 241.46936596 -128 244 C-126.15227248 244.46394319 -124.29739558 244.90003336 -122.4375 245.3125 C-115.96294005 246.8895348 -110.08630034 249.32547884 -104 252 C-101.83487674 252.89955716 -99.6682357 253.79547099 -97.5 254.6875 C-94.26860912 256.02088307 -91.10632623 257.3955532 -88 259 C-88 259.66 -88 260.32 -88 261 C-87.32582031 261.24492187 -86.65164063 261.48984375 -85.95703125 261.7421875 C-82.35909286 263.27261836 -79.06123937 265.15843308 -75.6875 267.125 C-75.04232422 267.49753906 -74.39714844 267.87007813 -73.73242188 268.25390625 C-72.15324055 269.16632213 -70.57638136 270.08275509 -69 271 C-69 267.5735302 -75.7483803 262.43658688 -78 260 C-78.89912109 259.00033203 -78.89912109 259.00033203 -79.81640625 257.98046875 C-88.85330138 248.37750413 -100.44601805 240.27336862 -112 234 C-112.61230469 233.64808594 -113.22460938 233.29617188 -113.85546875 232.93359375 C-124.39587263 227.20267053 -136.16511272 224.33716264 -148 223 C-147.43408001 192.4917677 -127.17230902 167.57607317 -106.28515625 147.15234375 C-103.66847824 144.68774617 -100.99219459 142.31380551 -98.26171875 139.9765625 C-95.28614721 137.37614938 -92.39582599 134.68856924 -89.5 132 C-86.01573746 128.76849983 -82.52957453 125.54963138 -78.9375 122.4375 C-66.26683838 111.43682098 -53.71775343 99.94425211 -43 87 C-42.55221191 86.47132324 -42.10442383 85.94264648 -41.64306641 85.39794922 C-19.89694184 59.69545982 -4.77072476 33.51143248 0 0 Z " fill="#022144" transform="translate(400,53)"/>
<path d="M0 0 C0 0.33 0 0.66 0 1 C-1.11375 1.1959375 -2.2275 1.391875 -3.375 1.59375 C-31.42596797 6.93281209 -52.82813403 25.11486075 -74.125 43.1875 C-93.81386133 59.87267623 -113.56076666 76.11060939 -136 89 C-136.64775391 89.38269043 -137.29550781 89.76538086 -137.96289062 90.15966797 C-146.98970637 95.47953956 -155.91098698 98.93446192 -166.06738281 101.49609375 C-167.75436921 101.93595478 -169.42258456 102.44658351 -171.0859375 102.96875 C-190.20134419 108.50350582 -214.46115758 106.30130612 -232.58569336 98.05053711 C-235.06681661 96.97092609 -237.56627801 96.08564845 -240.125 95.20703125 C-245.8466451 93.14300217 -251.14364588 90.55489202 -256.5 87.6875 C-257.86692993 86.96445679 -257.86692993 86.96445679 -259.26147461 86.22680664 C-264.99208725 83.1647839 -270.54543383 79.96373984 -275.94140625 76.33984375 C-277.90831624 75.05967273 -279.89494584 74.03069384 -282 73 C-268.21773517 87.40083705 -254.59984225 99.49504068 -237 109 C-236.29617188 109.38671875 -235.59234375 109.7734375 -234.8671875 110.171875 C-232.93647354 111.18804024 -230.99319847 112.11285386 -229 113 C-228.21753906 113.34933594 -227.43507813 113.69867187 -226.62890625 114.05859375 C-218.60679672 117.31273328 -210.54484523 118.18518414 -202 119 C-200.22031161 140.45513231 -214.01132322 161.01001277 -227.31640625 176.73828125 C-229.51077977 179.19216329 -231.75082915 181.59639664 -234 184 C-235.52212543 185.72802939 -237.04295742 187.45719895 -238.5625 189.1875 C-241.80039656 192.78329877 -245.14211239 196.03636584 -248.8359375 199.15625 C-251.44560137 201.37964593 -253.97018342 203.68622836 -256.5 206 C-261.96683926 210.9807318 -267.47856077 215.89172648 -273.1484375 220.640625 C-281.02920155 227.27024585 -288.42930546 234.2121711 -295.61816406 241.58520508 C-298.67955592 244.719616 -301.78890606 247.80149088 -304.9453125 250.83984375 C-312.72115338 258.37554658 -319.62754451 266.2465222 -326 275 C-326.42909668 275.58475098 -326.85819336 276.16950195 -327.30029297 276.77197266 C-337.09085774 290.27709476 -345.44488769 305.35055849 -348 322 C-348.20109375 323.2890625 -348.4021875 324.578125 -348.609375 325.90625 C-349.10683822 329.267488 -349.57047699 332.62950766 -350 336 C-350.33 336 -350.66 336 -351 336 C-351.15853855 326.94187051 -350.70941299 318.07916706 -349.828125 309.06640625 C-349.70588562 307.76697586 -349.58364624 306.46754547 -349.45770264 305.1287384 C-349.13052255 301.65542414 -348.79555903 298.18290751 -348.45825195 294.71056366 C-348.24839727 292.54596828 -348.04038871 290.38120333 -347.83300781 288.21636963 C-347.08119589 280.36849199 -346.3212728 272.52144717 -345.55332184 264.67513275 C-345.16987986 260.75350844 -344.79191382 256.83141768 -344.41992188 252.90869141 C-341.38943976 220.98293994 -337.55083915 188.9800597 -329 158 C-328.61207275 156.57059082 -328.61207275 156.57059082 -328.21630859 155.11230469 C-315.90115822 110.35596003 -294.41621962 68.53371482 -253.2512207 44.57421875 C-249.86749591 42.65222013 -246.44342801 40.8124602 -243 39 C-242.36175293 38.6611377 -241.72350586 38.32227539 -241.06591797 37.97314453 C-189.25807713 10.88606469 -126.16975537 7.89860507 -69 4 C-68.27224365 3.95037109 -67.5444873 3.90074219 -66.79467773 3.84960938 C-64.77459099 3.71203146 -62.75448338 3.57475995 -60.734375 3.4375 C-59.49187988 3.35298584 -58.24938477 3.26847168 -56.96923828 3.18139648 C-54.60310964 3.02083661 -52.23690017 2.86146282 -49.87060547 2.70336914 C-42.48511554 2.20133433 -35.11986221 1.566519 -27.75 0.875 C-18.4748972 0.0105291 -9.30950913 -0.22492774 0 0 Z " fill="#022144" transform="translate(754,399)"/>
<path d="M0 0 C14.64908147 -0.26335654 29.03604166 0.53898981 43.625 1.8125 C48.05567285 2.18740468 52.48680963 2.55667419 56.91796875 2.92578125 C58.02292191 3.01856354 59.12787506 3.11134583 60.26631165 3.2069397 C69.95063691 4.01356912 79.64167779 4.67893664 89.33776855 5.32495117 C150.35966459 9.43376457 219.86519078 15.32825344 271 52 C271.83789062 52.59683594 272.67578125 53.19367188 273.5390625 53.80859375 C321.59565435 90.20324393 337.72898007 156.61620317 345.83822632 213.16596985 C347.56175992 225.65388744 348.7203264 238.20480173 349.9375 250.75 C350.19776508 253.40449106 350.45829968 256.05895413 350.71923828 258.71337891 C351.1109013 262.70065145 351.50167086 266.68800582 351.89038086 270.67556763 C352.66614336 278.63218448 353.46251569 286.58636046 354.27734375 294.5390625 C354.55700776 297.29635893 354.83589266 300.05373247 355.11428833 302.81115723 C355.2850746 304.49067217 355.45806785 306.1699645 355.6335144 307.84899902 C356.65223615 317.61804246 357.23000058 327.16501782 357 337 C356.34 337 355.68 337 355 337 C354.97421875 336.07960938 354.9484375 335.15921875 354.921875 334.2109375 C353.69064228 306.73206173 338.95209857 283.0673846 321 263 C319.83253388 261.64652251 318.66575739 260.29244952 317.5 258.9375 C316.3373191 257.6214679 315.17015 256.30939541 314 255 C313.14535156 254.0409375 312.29070312 253.081875 311.41015625 252.09375 C306.78986164 246.95403295 302.13127219 242.02584433 296.828125 237.57421875 C294.95536509 235.96156438 293.22957423 234.26463317 291.5 232.5 C288.51127663 229.46405075 285.38293521 226.65491341 282.15625 223.875 C279.80037042 221.82640906 277.4949254 219.72796998 275.1875 217.625 C271.75554859 214.51790506 268.24727848 211.56968705 264.625 208.6875 C258.28850287 203.5660982 252.67808284 197.82450904 247 192 C243.70550837 188.678129 243.70550837 188.678129 240.33203125 185.4375 C224.79954099 170.74352464 211.25042585 149.24668603 208 128 C207.95549672 125.66709111 207.94432072 123.33266891 208 121 C209.77503906 120.63648438 209.77503906 120.63648438 211.5859375 120.265625 C224.12093753 117.65980919 224.12093753 117.65980919 236 113 C236.93344238 112.54149658 236.93344238 112.54149658 237.88574219 112.07373047 C247.17408221 107.45970343 255.90953439 102.54392867 264 96 C264.54221191 95.56316895 265.08442383 95.12633789 265.64306641 94.67626953 C274.18058926 87.74295365 281.78990749 80.29896362 289 72 C288.20980469 72.46148437 287.41960937 72.92296875 286.60546875 73.3984375 C279.49607644 77.50969751 272.32489525 81.47734237 265.0625 85.3125 C264.27061279 85.73257324 263.47872559 86.15264648 262.6628418 86.58544922 C258.18278508 88.93720735 253.68542157 91.07708132 249 93 C247.86304688 93.47179687 246.72609375 93.94359375 245.5546875 94.4296875 C226.25001845 102.01220082 199.06136876 110.67822087 179 102 C176.47877514 101.52226517 173.96990611 101.09056834 171.4375 100.6875 C140.88061049 95.30818169 113.78997862 71.60847219 90.87817383 52.13061523 C86.64461494 48.53410027 82.36662517 44.99764486 78.05078125 41.5 C75.73650811 39.60354058 73.44733915 37.68760468 71.16796875 35.75 C49.51038187 17.43843147 28.56851793 4.23776537 0 1 C0 0.67 0 0.34 0 0 Z " fill="#022144" transform="translate(44,398)"/>
<path d="M0 0 C1.45019531 1.29357422 1.45019531 1.29357422 2.9296875 2.61328125 C17.98340902 15.49006108 47.14603002 36.49823153 67.83203125 35.88671875 C72.80113054 35.04526944 77.28857044 33.09146637 81.875 31.0625 C82.79337646 30.65990967 83.71175293 30.25731934 84.65795898 29.8425293 C100.72998592 22.66259075 114.99657948 13.57029575 129.22265625 3.23999023 C131 2 131 2 133 1 C131.71379197 3.7996841 130.32836819 5.91720916 128.2421875 8.17578125 C113.66319977 24.81916778 100.90176026 51.34609078 101.6640625 73.8046875 C104.04873826 96.48683604 115.67828928 119.98213274 130.56640625 137.046875 C132 139 132 139 132 142 C131.42636719 141.48953125 130.85273438 140.9790625 130.26171875 140.453125 C114.04506842 126.57423155 85.28745938 105.41137606 63 107 C60.15268986 107.73421205 57.47127145 108.76747422 54.75 109.875 C53.97277588 110.18671143 53.19555176 110.49842285 52.39477539 110.81958008 C33.70979112 118.52000174 15.63550309 128.91022753 1 143 C-2.50902895 140.06387374 -5.85324044 137.19049857 -8.9375 133.8125 C-26.22796658 116.44569582 -51.30366556 106.76027443 -74 99 C-74.80099121 98.71817871 -75.60198242 98.43635742 -76.42724609 98.14599609 C-116.76271413 84.11136838 -161.68696217 81.05611193 -204 78 C-205.75244158 77.87256098 -207.50488298 77.7451195 -209.25732422 77.61767578 C-216.53545294 77.09013757 -223.81383674 76.56667599 -231.09350586 76.06079102 C-239.65420343 75.46478277 -248.20640006 74.8290625 -256.75537109 74.07983398 C-268.53183465 73.05002823 -280.18174409 72.77631061 -292 73 C-291.67 72.01 -291.34 71.02 -291 70 C-290.0527002 70.02175293 -289.10540039 70.04350586 -288.12939453 70.06591797 C-276.39121918 70.24584795 -264.81395825 69.41378885 -253.12484741 68.40527344 C-247.55708341 67.92509817 -241.98747906 67.46721329 -236.41796875 67.0078125 C-235.32637955 66.917276 -234.23479034 66.8267395 -233.11012268 66.73345947 C-224.80719918 66.05050886 -216.50426212 65.48851135 -208.1875 65 C-175.84600786 63.00298013 -143.8453838 60.09761598 -112 54 C-110.8852832 53.79262207 -109.77056641 53.58524414 -108.62207031 53.37158203 C-69.05373962 45.92072515 -27.89489888 29.98266678 0 0 Z " fill="#FAFBFB" transform="translate(335,326)"/>
<path d="M0 0 C0 3.66313738 -0.67447635 4.03917323 -3.12890625 6.609375 C-6.98272089 10.86145915 -10.00487033 15.32829943 -12.9375 20.25 C-13.45111084 21.11117432 -13.96472168 21.97234863 -14.49389648 22.85961914 C-25.58406607 41.9816181 -33.75091648 63.32075016 -28.04541016 85.44238281 C-22.82870856 103.77179929 -13.98625675 121.65902735 -1.43359375 136.046875 C0 138 0 138 0 141 C-0.86044922 140.23429687 -0.86044922 140.23429687 -1.73828125 139.453125 C-17.95493158 125.57423155 -46.71254062 104.41137606 -69 106 C-71.84731014 106.73421205 -74.52872855 107.76747422 -77.25 108.875 C-78.02722412 109.18671143 -78.80444824 109.49842285 -79.60522461 109.81958008 C-97.29584896 117.11020794 -113.1800262 126.92658505 -128 139 C-128.66 138.67 -129.32 138.34 -130 138 C-129.32195312 137.13761719 -128.64390625 136.27523437 -127.9453125 135.38671875 C-113.29486981 116.33981742 -97.52371485 89.39451021 -100.3671875 64.46875 C-104.51957202 41.70753113 -115.17784109 20.6687987 -130 3 C-126.51732237 3 -125.98465263 3.53081518 -123.35546875 5.640625 C-109.77066746 16.2014229 -94.7132038 24.114131 -79 31 C-77.27330078 31.76376953 -77.27330078 31.76376953 -75.51171875 32.54296875 C-68.17170114 35.51755403 -62.5945917 35.14693654 -55.2578125 32.28515625 C-53.5408216 31.55840969 -51.83006774 30.81679592 -50.125 30.0625 C-49.20662354 29.65990967 -48.28824707 29.25731934 -47.34204102 28.8425293 C-31.24414113 21.6510324 -12.58108613 12.58108613 0 0 Z " fill="#022144" transform="translate(467,327)"/>
<path d="M0 0 C0 3.62805967 -0.55444233 3.87485399 -3 6.375 C-7.87644946 11.70020248 -11.36185585 17.80098036 -15 24 C-15.66 23.67 -16.32 23.34 -17 23 C-17 21.68 -17 20.36 -17 19 C-16.34 19 -15.68 19 -15 19 C-15 17.02 -15 15.04 -15 13 C-15.66 12.67 -16.32 12.34 -17 12 C-16.52054932 11.67201416 -16.04109863 11.34402832 -15.54711914 11.00610352 C-13.38482365 9.52600294 -11.22364932 8.04427358 -9.0625 6.5625 C-8.30775391 6.04623047 -7.55300781 5.52996094 -6.77539062 4.99804688 C-6.05673828 4.50498047 -5.33808594 4.01191406 -4.59765625 3.50390625 C-3.93258057 3.04830322 -3.26750488 2.5927002 -2.58227539 2.12329102 C-1.03649044 1.09224205 -1.03649044 1.09224205 0 0 Z " fill="#102544" transform="translate(467,327)"/>
<path d="M0 0 C0.33 0 0.66 0 1 0 C1.18175781 1.23234375 1.36351562 2.4646875 1.55078125 3.734375 C1.80327728 5.40646356 2.0572859 7.07832414 2.3125 8.75 C2.44422607 9.61439697 2.57595215 10.47879395 2.71166992 11.36938477 C3.64165449 17.26185048 4.8942509 22.94133509 6.64453125 28.65234375 C7.08040612 31.53103383 6.65109611 32.63325851 5 35 C4.01 35.66 3.02 36.32 2 37 C-0.38776806 11.0298471 -0.38776806 11.0298471 0 0 Z " fill="#283D5A" transform="translate(403,53)"/>
<path d="M0 0 C0.66 0.33 1.32 0.66 2 1 C1.36191406 1.75925781 0.72382813 2.51851563 0.06640625 3.30078125 C-0.75988281 4.29464844 -1.58617187 5.28851563 -2.4375 6.3125 C-3.26121094 7.29863281 -4.08492188 8.28476562 -4.93359375 9.30078125 C-7.14121576 11.88100145 -7.14121576 11.88100145 -8 15 C-10.72265625 17.04296875 -10.72265625 17.04296875 -14.0625 19.1875 C-15.16722656 19.90292969 -16.27195312 20.61835938 -17.41015625 21.35546875 C-18.26480469 21.89816406 -19.11945313 22.44085938 -20 23 C-20 20 -20 20 -18.609375 18.3515625 C-17.99578125 17.78179687 -17.3821875 17.21203125 -16.75 16.625 C-14.66410516 14.63486481 -12.83352208 12.78518978 -11.0625 10.5 C-8.08864079 6.89532217 -4.54981154 4.02180754 -1 1 C-0.67 0.67 -0.34 0.34 0 0 Z " fill="#E5E9EC" transform="translate(492,302)"/>
<path d="M0 0 C0.33 0 0.66 0 1 0 C1.33 1.65 1.66 3.3 2 5 C2.99 5.33 3.98 5.66 5 6 C4.73445313 7.06476562 4.46890625 8.12953125 4.1953125 9.2265625 C1.9352749 18.45576142 0.13750242 27.55573645 -1 37 C-1.33 37 -1.66 37 -2 37 C-2.43569935 24.60677392 -1.13339967 12.32722863 0 0 Z " fill="#243654" transform="translate(405,698)"/>
<path d="M0 0 C0 0.33 0 0.66 0 1 C-1.25296875 1.27714844 -2.5059375 1.55429687 -3.796875 1.83984375 C-5.44792292 2.20570096 -7.09896424 2.57158793 -8.75 2.9375 C-9.575 3.11990234 -10.4 3.30230469 -11.25 3.49023438 C-12.04921875 3.66748047 -12.8484375 3.84472656 -13.671875 4.02734375 C-14.77160645 4.27085571 -14.77160645 4.27085571 -15.89355469 4.51928711 C-17.32116515 4.84508277 -18.73933024 5.21478267 -20.14550781 5.62329102 C-22 6 -22 6 -24 5 C-24 4.01 -24 3.02 -24 2 C-25.98 2 -27.96 2 -30 2 C-30 1.67 -30 1.34 -30 1 C-19.97112823 0.0232751 -10.06604235 -0.10849626 0 0 Z " fill="#182B4F" transform="translate(754,399)"/>
<path d="M0 0 C0.33 0 0.66 0 1 0 C2.22823191 12.02425976 3.3716832 23.89964694 3 36 C2.34 36 1.68 36 1 36 C0.92652344 34.515 0.92652344 34.515 0.8515625 33 C0.48480961 24.59942611 0.48480961 24.59942611 -1.125 16.375 C-2.0347556 12.8659427 -1.93906634 11.41478669 -1 8 C-0.62043759 5.3380689 -0.3168262 2.67039228 0 0 Z " fill="#3A4961" transform="translate(398,699)"/>
<path d="M0 0 C0.33 0 0.66 0 1 0 C1.13852709 7.79311062 0.73633492 15.43110717 0 23.1875 C-0.09539062 24.23486328 -0.19078125 25.28222656 -0.2890625 26.36132812 C-0.52163461 28.90799269 -0.75866925 31.45415315 -1 34 C-1.33 34 -1.66 34 -2 34 C-2.12375 33.195625 -2.2475 32.39125 -2.375 31.5625 C-2.58125 30.716875 -2.7875 29.87125 -3 29 C-3.66 28.67 -4.32 28.34 -5 28 C-4.731875 26.72125 -4.46375 25.4425 -4.1875 24.125 C-2.5798661 16.12152761 -1.31623941 8.05538522 0 0 Z " fill="#2A3D56" transform="translate(400,53)"/>
<path d="M0 0 C11.39053108 -0.10313358 22.64764338 -0.05253638 34 1 C34 1.33 34 1.66 34 2 C30.92382812 2.29296875 30.92382812 2.29296875 27.84765625 2.5859375 C27.23792969 2.72257812 26.62820312 2.85921875 26 3 C25.67 3.66 25.34 4.32 25 5 C24.45214844 4.87882812 23.90429688 4.75765625 23.33984375 4.6328125 C15.60696327 2.99821988 7.83796865 1.98235874 0 1 C0 0.67 0 0.34 0 0 Z " fill="#2E425F" transform="translate(44,398)"/>
<path d="M0 0 C4.455 2.97 4.455 2.97 9 6 C9 5.01 9 4.02 9 3 C9.66 3 10.32 3 11 3 C12.40268922 4.69491614 13.72390346 6.457835 15 8.25 C16.051875 9.71179688 16.051875 9.71179688 17.125 11.203125 C18.62191333 13.43602072 19.88577861 15.56264072 21 18 C20.57332031 17.67128906 20.14664062 17.34257812 19.70703125 17.00390625 C16.38662804 14.47766133 13.04870948 12.01370444 9.57421875 9.703125 C8.68996216 9.11035767 8.68996216 9.11035767 7.7878418 8.50561523 C6.60358024 7.71529894 5.41364888 6.93340821 4.21801758 6.16040039 C2.75862249 5.18223335 1.37169265 4.09777232 0 3 C0 2.01 0 1.02 0 0 Z " fill="#1A2A47" transform="translate(447,450)"/>
<path d="M0 0 C1.98 0.99 1.98 0.99 4 2 C3.67 9.26 3.34 16.52 3 24 C2.34 24 1.68 24 1 24 C0.3533402 15.98603754 -0.16677223 8.04212755 0 0 Z " fill="#F2F4F7" transform="translate(400,711)"/>
<path d="M0 0 C3.28782031 1.52921875 6.16292916 3.41328741 9.125 5.5 C9.99382812 6.1084375 10.86265625 6.716875 11.7578125 7.34375 C14 9 14 9 16 11 C14.68 11 13.36 11 12 11 C11.67 11.99 11.34 12.98 11 14 C6.45924219 9.85989729 3.28157862 5.17609824 0 0 Z " fill="#102347" transform="translate(337,329)"/>
<path d="M0 0 C0 0.33 0 0.66 0 1 C-10.36503256 1.91987611 -20.60330359 2.1132812 -31 2 C-31 1.67 -31 1.34 -31 1 C-9.39260417 -2.99443115 -9.39260417 -2.99443115 0 0 Z " fill="#2E4263" transform="translate(75,395)"/>
<path d="M0 0 C0.66 0.33 1.32 0.66 2 1 C-1.63 4.96 -5.26 8.92 -9 13 C-9.33 12.01 -9.66 11.02 -10 10 C-12.01508358 9.26676204 -12.01508358 9.26676204 -14 9 C-13.07316406 8.43410156 -12.14632813 7.86820312 -11.19140625 7.28515625 C-9.98172588 6.54434424 -8.77209291 5.80345482 -7.5625 5.0625 C-6.95083984 4.68931641 -6.33917969 4.31613281 -5.70898438 3.93164062 C-2.68972694 2.18538519 -2.68972694 2.18538519 0 0 Z " fill="#D6DBE2" transform="translate(332,469)"/>
<path d="M0 0 C2.93230193 1.32120828 4.98664899 2.74638197 7.234375 5.0390625 C8.09482422 5.90917969 8.09482422 5.90917969 8.97265625 6.796875 C9.55917969 7.40015625 10.14570313 8.0034375 10.75 8.625 C11.35199219 9.23601562 11.95398438 9.84703125 12.57421875 10.4765625 C14.05405305 11.97988624 15.52764676 13.48934856 17 15 C16.34 15.66 15.68 16.32 15 17 C13.05611304 15.11036105 11.1199654 13.21376065 9.1875 11.3125 C8.64029297 10.78205078 8.09308594 10.25160156 7.52929688 9.70507812 C4.46882706 6.68170491 2.03242909 3.84378695 0 0 Z " fill="#152A4C" transform="translate(451,147)"/>
<path d="M0 0 C7.26 0.99 14.52 1.98 22 3 C22 3.33 22 3.66 22 4 C12.60644064 4.14256667 3.35927791 3.72492332 -6 3 C-6 2.67 -6 2.34 -6 2 C-4.02 2 -2.04 2 0 2 C0 1.34 0 0.68 0 0 Z " fill="#334266" transform="translate(738,392)"/>
<path d="M0 0 C1.10859375 0.00322266 2.2171875 0.00644531 3.359375 0.00976562 C4.50148437 0.01814453 5.64359375 0.02652344 6.8203125 0.03515625 C8.56828125 0.04192383 8.56828125 0.04192383 10.3515625 0.04882812 C13.21619895 0.06056844 16.08072883 0.07699055 18.9453125 0.09765625 C18.9453125 0.42765625 18.9453125 0.75765625 18.9453125 1.09765625 C12.6753125 1.09765625 6.4053125 1.09765625 -0.0546875 1.09765625 C-0.0546875 1.75765625 -0.0546875 2.41765625 -0.0546875 3.09765625 C-5.0046875 3.09765625 -9.9546875 3.09765625 -15.0546875 3.09765625 C-10.32175127 -0.05763457 -5.57240142 -0.02872372 0 0 Z " fill="#657388" transform="translate(234.0546875,292.90234375)"/>
<path d="M0 0 C4.27070558 -0.08692074 8.54118458 -0.14036515 12.8125 -0.1875 C14.63491211 -0.22520508 14.63491211 -0.22520508 16.49414062 -0.26367188 C18.23920898 -0.27817383 18.23920898 -0.27817383 20.01953125 -0.29296875 C21.09307861 -0.3086792 22.16662598 -0.32438965 23.27270508 -0.34057617 C26 0 26 0 29 3 C19.43 3 9.86 3 0 3 C0 2.01 0 1.02 0 0 Z " fill="#D2D7DE" transform="translate(43,396)"/>
<path d="M0 0 C0.33 0.99 0.66 1.98 1 3 C-0.1196986 4.00593243 -1.2459412 5.0045849 -2.375 6 C-3.31472656 6.8353125 -3.31472656 6.8353125 -4.2734375 7.6875 C-6 9 -6 9 -8 9 C-8.28875 8.21625 -8.5775 7.4325 -8.875 6.625 C-9.84912254 3.90328368 -9.84912254 3.90328368 -12 2 C-8.26512223 2.4979837 -6.18762365 2.87491756 -3 5 C-3 3.68 -3 2.36 -3 1 C-2.01 0.67 -1.02 0.34 0 0 Z " fill="#0C2545" transform="translate(337,321)"/>
<path d="M0 0 C0.91058531 3.07322544 1.08886184 5.80097361 1 9 C0.34 9 -0.32 9 -1 9 C-1 11.97 -1 14.94 -1 18 C1.97 18.33 4.94 18.66 8 19 C8 19.33 8 19.66 8 20 C4.37 20 0.74 20 -3 20 C-2.22095672 6.3667426 -2.22095672 6.3667426 0 0 Z " fill="#1D2F4F" transform="translate(255,256)"/>
<path d="M0 0 C0 0.99 0 1.98 0 3 C-1.93475671 3.53093324 -3.87293155 4.04942317 -5.8125 4.5625 C-7.43091797 4.99755859 -7.43091797 4.99755859 -9.08203125 5.44140625 C-12 6 -12 6 -15 5 C-15.33 5.66 -15.66 6.32 -16 7 C-16.66 6.34 -17.32 5.68 -18 5 C-15.56427941 4.16112944 -13.12666783 3.32873471 -10.6875 2.5 C-9.65206055 2.14228516 -9.65206055 2.14228516 -8.59570312 1.77734375 C-5.61068511 0.76791737 -3.17341086 0 0 0 Z " fill="#243959" transform="translate(530,296)"/>
<path d="M0 0 C0.66 0.33 1.32 0.66 2 1 C0.28133968 2.9684831 -1.44884125 4.9243097 -3.1875 6.875 C-3.67025391 7.43058594 -4.15300781 7.98617187 -4.65039062 8.55859375 C-7.52249465 11.75838749 -9.74502322 13.77095735 -14 15 C-9.59156563 9.70987876 -4.92440206 4.81191572 0 0 Z " fill="#243656" transform="translate(296,198)"/>
<path d="M0 0 C1.75129657 1.10210905 3.50098464 2.20677432 5.25 3.3125 C6.22453125 3.92738281 7.1990625 4.54226563 8.203125 5.17578125 C10.54733713 6.70475759 12.78784032 8.28820977 15 10 C11.79462673 11.06845776 11.04079371 11.18316597 8 10 C5.859375 8.22265625 5.859375 8.22265625 3.75 6.0625 C3.04359375 5.35222656 2.3371875 4.64195312 1.609375 3.91015625 C0 2 0 2 0 0 Z " fill="#E4E7EB" transform="translate(471,470)"/>
<path d="M0 0 C0.99 1.32 1.98 2.64 3 4 C0.14723863 6.93200474 -2.65079784 9.64315404 -6 12 C-6.66 11.67 -7.32 11.34 -8 11 C-5.36 7.37 -2.72 3.74 0 0 Z " fill="#252F4E" transform="translate(345,454)"/>
<path d="M0 0 C0 3.73869249 -0.90485692 4.36550705 -3.375 7.0625 C-4.31472656 8.10083984 -4.31472656 8.10083984 -5.2734375 9.16015625 C-6.49397067 10.46076965 -7.73879097 11.73879097 -9 13 C-9.66 11.35 -10.32 9.7 -11 8 C-7.37 5.36 -3.74 2.72 0 0 Z " fill="#122445" transform="translate(467,327)"/>
<path d="M0 0 C0.66 0.33 1.32 0.66 2 1 C1.360625 1.103125 0.72125 1.20625 0.0625 1.3125 C-0.618125 1.539375 -1.29875 1.76625 -2 2 C-2.33 2.99 -2.66 3.98 -3 5 C-5.93448193 6.30421419 -8.09286838 7.09806828 -11.3125 6.75 C-13 6 -13 6 -14 4 C-13.24074219 3.79503906 -12.48148437 3.59007812 -11.69921875 3.37890625 C-10.20841797 2.97478516 -10.20841797 2.97478516 -8.6875 2.5625 C-7.70136719 2.29566406 -6.71523438 2.02882813 -5.69921875 1.75390625 C-3.78482474 1.21920575 -1.88566385 0.62855462 0 0 Z " fill="#273C5B" transform="translate(275,513)"/>
<path d="M0 0 C0.33 0.99 0.66 1.98 1 3 C1.66 3 2.32 3 3 3 C3.33 3.99 3.66 4.98 4 6 C2.1875 7.5625 2.1875 7.5625 0 9 C-0.99 8.67 -1.98 8.34 -3 8 C-2.25 2.25 -2.25 2.25 0 0 Z " fill="#091834" transform="translate(349,449)"/>
<path d="M0 0 C2.64 0.33 5.28 0.66 8 1 C8.33 1.99 8.66 2.98 9 4 C5.37 4 1.74 4 -2 4 C-1.34 2.68 -0.68 1.36 0 0 Z " fill="#071532" transform="translate(729,390)"/>
<path d="M0 0 C0.33 0.99 0.66 1.98 1 3 C-3.26311718 7.12989477 -6.28758534 7.61271765 -12 8 C-8.21087559 5.00027651 -4.11168168 2.52489191 0 0 Z " fill="#172D4E" transform="translate(449,340)"/>
<path d="M0 0 C4.70478962 3.42166518 8.27653164 7.57905197 12 12 C11.34 12.66 10.68 13.32 10 14 C8.32401988 12.23722805 6.65940764 10.46575711 5 8.6875 C4.52304687 8.18798828 4.04609375 7.68847656 3.5546875 7.17382812 C0 3.33984375 0 3.33984375 0 0 Z " fill="#1A2D4E" transform="translate(439,132)"/>
<path d="M0 0 C0.66 0.66 1.32 1.32 2 2 C1.54625 2.4125 1.0925 2.825 0.625 3.25 C-1.09193414 4.88256049 -1.09193414 4.88256049 -1.75 6.9375 C-3.72366841 10.19405287 -6.6533474 11.26469865 -10 13 C-8.48446596 9.52224821 -6.4226544 7.0442016 -3.875 4.25 C-3.15054687 3.45078125 -2.42609375 2.6515625 -1.6796875 1.828125 C-0.84824219 0.92320312 -0.84824219 0.92320312 0 0 Z " fill="#D3D9E0" transform="translate(481,312)"/>
<path d="M0 0 C1.65 1.65 3.3 3.3 5 5 C3.8553125 5.12375 3.8553125 5.12375 2.6875 5.25 C-0.52373261 6.14615794 -1.29374499 7.21611025 -3 10 C-3.99 9.67 -4.98 9.34 -6 9 C-5.566875 8.51789063 -5.13375 8.03578125 -4.6875 7.5390625 C-4.130625 6.90742188 -3.57375 6.27578125 -3 5.625 C-2.443125 4.99851562 -1.88625 4.37203125 -1.3125 3.7265625 C0.20172487 2.09610167 0.20172487 2.09610167 0 0 Z " fill="#1B2C4A" transform="translate(333,467)"/>
<path d="M0 0 C0.33 0 0.66 0 1 0 C1.33 1.65 1.66 3.3 2 5 C2.99 5.33 3.98 5.66 5 6 C4.34 8.31 3.68 10.62 3 13 C0.75393573 11.22555028 0.04918998 10.41647515 -0.29296875 7.51953125 C-0.25816406 6.62621094 -0.22335937 5.73289062 -0.1875 4.8125 C-0.16042969 3.91144531 -0.13335937 3.01039063 -0.10546875 2.08203125 C-0.07066406 1.39496094 -0.03585937 0.70789063 0 0 Z " fill="#173254" transform="translate(405,698)"/>
<path d="M0 0 C4.1724106 0.51881113 6.25416821 1.71151274 9.3125 4.5625 C10.00988281 5.20316406 10.70726562 5.84382813 11.42578125 6.50390625 C11.94527344 6.99761719 12.46476563 7.49132812 13 8 C12.34 8.66 11.68 9.32 11 10 C7.11098131 6.83451967 3.49359465 3.59634744 0 0 Z " fill="#132649" transform="translate(670,347)"/>
<path d="M0 0 C0 3 0 3 -1.53125 4.60546875 C-2.1809375 5.12753906 -2.830625 5.64960938 -3.5 6.1875 C-4.1496875 6.71730469 -4.799375 7.24710937 -5.46875 7.79296875 C-5.9740625 8.19128906 -6.479375 8.58960938 -7 9 C-7.33 8.01 -7.66 7.02 -8 6 C-3.375 1.125 -3.375 1.125 0 0 Z " fill="#091D38" transform="translate(330,329)"/>
<path d="M0 0 C2.31 0.66 4.62 1.32 7 2 C6.01 2.33 5.02 2.66 4 3 C4 3.66 4 4.32 4 5 C4.66 5 5.32 5 6 5 C5.67 5.99 5.34 6.98 5 8 C3.02 6.35 1.04 4.7 -1 3 C-0.67 2.01 -0.34 1.02 0 0 Z " fill="#ECEFF2" transform="translate(482,479)"/>
<path d="M0 0 C2.18697502 2.79624958 3.99152813 5.63307872 5.6875 8.75 C6.12449219 9.54921875 6.56148438 10.3484375 7.01171875 11.171875 C7.33785156 11.77515625 7.66398437 12.3784375 8 13 C4.62772951 11.60632076 3.09506287 10.15724701 1.1875 7.0625 C0.74792969 6.37285156 0.30835938 5.68320312 -0.14453125 4.97265625 C-1 3 -1 3 0 0 Z " fill="#162F51" transform="translate(448,438)"/>
<path d="M0 0 C0.66 0.66 1.32 1.32 2 2 C-0.77280706 5.08089673 -3.06326356 6.68775452 -7 8 C-7.66 7.34 -8.32 6.68 -9 6 C-6.03 4.02 -3.06 2.04 0 0 Z " fill="#162D4E" transform="translate(169,318)"/>
<path d="M0 0 C0.66 0.99 1.32 1.98 2 3 C1.38245741 4.31602523 0.75571258 5.62773556 0.125 6.9375 C-0.22304688 7.66839844 -0.57109375 8.39929688 -0.9296875 9.15234375 C-2 11 -2 11 -4 12 C-3.5317879 7.22423661 -2.75668002 3.95523655 0 0 Z " fill="#132C4B" transform="translate(353,441)"/>
<path d="M0 0 C0.66 0.66 1.32 1.32 2 2 C1.9765625 4.1640625 1.9765625 4.1640625 1.625 6.625 C1.51414062 7.44226563 1.40328125 8.25953125 1.2890625 9.1015625 C1.19367188 9.72804688 1.09828125 10.35453125 1 11 C0.01 11.33 -0.98 11.66 -2 12 C-1.34 8.04 -0.68 4.08 0 0 Z " fill="#152C4C" transform="translate(367,401)"/>
<path d="M0 0 C0.99 0.99 1.98 1.98 3 3 C1.948125 3.309375 1.948125 3.309375 0.875 3.625 C-2.95725116 5.45781577 -5.10452507 7.90251519 -8 11 C-8.66 10.67 -9.32 10.34 -10 10 C-6.7 6.7 -3.4 3.4 0 0 Z " fill="#C8D0D9" transform="translate(335,326)"/>
<path d="M0 0 C0.99 0.33 1.98 0.66 3 1 C2.375 2.875 2.375 2.875 1 5 C-2.125 6.25 -2.125 6.25 -5 7 C-3.70700306 4.11562221 -2.34058637 2.12780579 0 0 Z " fill="#172A43" transform="translate(511,587)"/>
<path d="M0 0 C0.66 0.66 1.32 1.32 2 2 C1.8125 4.5 1.8125 4.5 1 7 C0.01 7.66 -0.98 8.32 -2 9 C-2.6875 7.3125 -2.6875 7.3125 -3 5 C-1.5625 2.25 -1.5625 2.25 0 0 Z " fill="#081D38" transform="translate(536,555)"/>
<path d="M0 0 C0 0.99 0 1.98 0 3 C-3.375 3.125 -3.375 3.125 -7 3 C-7.66 2.34 -8.32 1.68 -9 1 C-3.375 -1.125 -3.375 -1.125 0 0 Z " fill="#132E50" transform="translate(75,391)"/>
<path d="M0 0 C1.98 0.66 3.96 1.32 6 2 C6 2.66 6 3.32 6 4 C7.32 4.66 8.64 5.32 10 6 C7 7 7 7 5.17578125 6.22265625 C3.45052083 5.1484375 1.72526042 4.07421875 0 3 C0 2.01 0 1.02 0 0 Z " fill="#2F4360" transform="translate(306,310)"/>
<path d="M0 0 C2.64752004 2.57784846 4.94432065 4.91648098 7 8 C4 8 4 8 1.8125 6.25 C0 4 0 4 0 0 Z " fill="#E7EAED" transform="translate(468,325)"/>
<path d="M0 0 C0.99 0 1.98 0 3 0 C1.68775452 3.93673644 0.08089673 6.22719294 -3 9 C-2.30058404 5.85262818 -1.23921302 2.97411124 0 0 Z " fill="#132743" transform="translate(342,312)"/>
<path d="M0 0 C0.33 0 0.66 0 1 0 C1.36923077 5.41538462 1.36923077 5.41538462 -0.5 8.375 C-0.995 8.91125 -1.49 9.4475 -2 10 C-2.99 9.67 -3.98 9.34 -5 9 C-3.35 6.03 -1.7 3.06 0 0 Z " fill="#142E4F" transform="translate(387,97)"/>
<path d="M0 0 C0.66 1.32 1.32 2.64 2 4 C0.7260411 6.03833424 -0.61061923 8.03852126 -2 10 C-2.66 10 -3.32 10 -4 10 C-2.8905928 6.51329166 -1.73662334 3.22515763 0 0 Z " fill="#172F51" transform="translate(448,498)"/>
<path d="M0 0 C-6.625 4 -6.625 4 -10 4 C-10.66 3.67 -11.32 3.34 -12 3 C-10.75823305 2.29773859 -9.50614401 1.61370891 -8.25 0.9375 C-7.20585938 0.36322266 -7.20585938 0.36322266 -6.140625 -0.22265625 C-3.63859372 -1.1312406 -2.4667645 -0.88336837 0 0 Z " fill="#CFD5DD" transform="translate(530,282)"/>
<path d="M0 0 C1.32 0.66 2.64 1.32 4 2 C-0.75 6 -0.75 6 -3 6 C-2.42655063 3.13275314 -2.1385485 2.1385485 0 0 Z " fill="#071B3B" transform="translate(468,470)"/>
<path d="M0 0 C0.66 0.66 1.32 1.32 2 2 C-2.39453125 6.00390625 -2.39453125 6.00390625 -4 7 C-4.99 6.67 -5.98 6.34 -7 6 C-4.69 4.02 -2.38 2.04 0 0 Z " fill="#122648" transform="translate(127,351)"/>
<path d="M0 0 C3.56311466 1.78155733 5.35645475 3.16763009 8 6 C7.01 7.485 7.01 7.485 6 9 C4.02 6.03 2.04 3.06 0 0 Z " fill="#2C395A" transform="translate(337,329)"/>
<path d="M0 0 C0.66 0.33 1.32 0.66 2 1 C-1.07999946 4.67230705 -3.2482602 5.56802365 -8 6 C-5.38485683 3.87961365 -2.80362384 1.86908256 0 0 Z " fill="#283A58" transform="translate(298,501)"/>
<path d="M0 0 C0 0.99 0 1.98 0 3 C-2.8125 3.625 -2.8125 3.625 -6 4 C-6.99 3.34 -7.98 2.68 -9 2 C-3.375 0 -3.375 0 0 0 Z " fill="#162E52" transform="translate(530,296)"/>
<path d="M0 0 C2.375 -0.1875 2.375 -0.1875 5 0 C5.66 0.99 6.32 1.98 7 3 C4.36 3.33 1.72 3.66 -1 4 C-0.67 2.68 -0.34 1.36 0 0 Z " fill="#031633" transform="translate(538,273)"/>
<path d="M0 0 C0.91058531 3.07322544 1.08886184 5.80097361 1 9 C0.34 9 -0.32 9 -1 9 C-1 10.98 -1 12.96 -1 15 C-1.33 15 -1.66 15 -2 15 C-2.19392201 9.47322267 -1.7479503 5.24385089 0 0 Z " fill="#3C506C" transform="translate(255,256)"/>
<path d="M0 0 C0.33 0 0.66 0 1 0 C1.08096803 1.45742463 1.13917774 2.91612807 1.1875 4.375 C1.22230469 5.18710937 1.25710938 5.99921875 1.29296875 6.8359375 C1.19628906 7.55007813 1.09960938 8.26421875 1 9 C0.01 9.66 -0.98 10.32 -2 11 C-2.24042276 6.91281305 -1.42258812 3.82320557 0 0 Z " fill="#0C172C" transform="translate(397,698)"/>
<path d="M0 0 C6.0546875 -0.1953125 6.0546875 -0.1953125 8 0 C10 2 10 2 10 5 C8.68 4.67 7.36 4.34 6 4 C6 3.01 6 2.02 6 1 C4.02 1 2.04 1 0 1 C0 0.67 0 0.34 0 0 Z " fill="#1D3655" transform="translate(724,400)"/>
<path d="M0 0 C2.97 0.495 2.97 0.495 6 1 C5.67 2.32 5.34 3.64 5 5 C3.35 4.67 1.7 4.34 0 4 C0 2.68 0 1.36 0 0 Z " fill="#16273E" transform="translate(69,400)"/>
<path d="M0 0 C0.99 0 1.98 0 3 0 C2.67 2.64 2.34 5.28 2 8 C1.67 6.68 1.34 5.36 1 4 C0.34 4 -0.32 4 -1 4 C-0.67 2.68 -0.34 1.36 0 0 Z " fill="#061933" transform="translate(435,381)"/>
<path d="M0 0 C0.66 0.33 1.32 0.66 2 1 C-0.06756277 3.7972908 -1.14440371 4.02692273 -4.6875 4.6875 C-5.780625 4.790625 -6.87375 4.89375 -8 5 C-5.45378681 2.99940392 -3.01962385 1.20784954 0 0 Z " fill="#3D4F6B" transform="translate(505,304)"/>
<path d="M0 0 C-0.3125 1.875 -0.3125 1.875 -1 4 C-1.99 4.66 -2.98 5.32 -4 6 C-4.33 4.68 -4.66 3.36 -5 2 C-2 0 -2 0 0 0 Z " fill="#071C38" transform="translate(432,666)"/>
<path d="M0 0 C2.64 1.98 5.28 3.96 8 6 C7.34 6.66 6.68 7.32 6 8 C4.99403703 7.0479279 3.99538437 6.08812654 3 5.125 C2.443125 4.59132813 1.88625 4.05765625 1.3125 3.5078125 C0 2 0 2 0 0 Z " fill="#1A3150" transform="translate(324,618)"/>
<path d="M0 0 C2.31 0.33 4.62 0.66 7 1 C7.33 1.99 7.66 2.98 8 4 C5.36 3.34 2.72 2.68 0 2 C0 1.34 0 0.68 0 0 Z " fill="#22324F" transform="translate(197,491)"/>
<path d="M0 0 C0.33 0.99 0.66 1.98 1 3 C-1.8125 5.0625 -1.8125 5.0625 -5 7 C-5.99 6.67 -6.98 6.34 -8 6 C-5.36 4.02 -2.72 2.04 0 0 Z " fill="#203554" transform="translate(106,368)"/>
<path d="M0 0 C0 0.99 0 1.98 0 3 C-2.3125 5.25 -2.3125 5.25 -5 7 C-5.99 6.67 -6.98 6.34 -8 6 C-5.36 4.02 -2.72 2.04 0 0 Z " fill="#454F68" transform="translate(467,327)"/>
<path d="M0 0 C4.875 4.75 4.875 4.75 6 7 C2.62496331 5.8141763 0.35277269 4.72426311 -2 2 C-1.34 2 -0.68 2 0 2 C0 1.34 0 0.68 0 0 Z " fill="#BFC6CF" transform="translate(328,319)"/>
<path d="M0 0 C2.64 1.65 5.28 3.3 8 5 C7.01 5.66 6.02 6.32 5 7 C3.29115995 5.37660195 1.62553283 3.70680947 0 2 C0 1.34 0 0.68 0 0 Z " fill="#C5CCD5" transform="translate(471,470)"/>
<path d="M0 0 C0.66 0.66 1.32 1.32 2 2 C1.1875 3.9375 1.1875 3.9375 0 6 C-0.99 6.33 -1.98 6.66 -3 7 C-2.25 2.25 -2.25 2.25 0 0 Z " fill="#122B49" transform="translate(330,466)"/>
<path d="M0 0 C0.99 1.32 1.98 2.64 3 4 C2.67 4.66 2.34 5.32 2 6 C0.68 6 -0.64 6 -2 6 C-1.49396008 3.83125748 -1.00016187 2.00032373 0 0 Z " fill="#162644" transform="translate(345,454)"/>
<path d="M0 0 C0.66 0 1.32 0 2 0 C2 0.66 2 1.32 2 2 C3.32 2.66 4.64 3.32 6 4 C6 4.99 6 5.98 6 7 C3.95880212 5.38405168 1.95927063 3.7143618 0 2 C0 1.34 0 0.68 0 0 Z " fill="#182F50" transform="translate(123,438)"/>
<path d="M0 0 C0.33 0.99 0.66 1.98 1 3 C-0.65 4.32 -2.3 5.64 -4 7 C-3.67 5.02 -3.34 3.04 -3 1 C-2.01 0.67 -1.02 0.34 0 0 Z " fill="#20304A" transform="translate(337,321)"/>
<path d="M0 0 C0.66 0.66 1.32 1.32 2 2 C1.625 4.125 1.625 4.125 1 6 C-0.32 6.33 -1.64 6.66 -3 7 C-2.01 4.69 -1.02 2.38 0 0 Z " fill="#E2E8ED" transform="translate(356,294)"/>
<path d="M0 0 C2.88437779 1.29299694 4.87219421 2.65941363 7 5 C6.01 5.33 5.02 5.66 4 6 C2.62437146 4.71034824 1.29233607 3.37310707 0 2 C0 1.34 0 0.68 0 0 Z " fill="#1E3656" transform="translate(306,296)"/>
<path d="M0 0 C0.99 0.33 1.98 0.66 3 1 C2.67 1.99 2.34 2.98 2 4 C-0.0625 4.6875 -0.0625 4.6875 -2 5 C-2 2 -2 2 0 0 Z " fill="#041A36" transform="translate(519,280)"/>
<path d="M0 0 C0.99 0.33 1.98 0.66 3 1 C1.35 2.65 -0.3 4.3 -2 6 C-2.33 5.01 -2.66 4.02 -3 3 C-2.01 2.01 -1.02 1.02 0 0 Z " fill="#182F51" transform="translate(362,134)"/>
</svg>
