<?xml version="1.0" standalone="no"?>
<!DOCTYPE svg PUBLIC "-//W3C//DTD SVG 20010904//EN"
 "http://www.w3.org/TR/2001/REC-SVG-20010904/DTD/svg10.dtd">
<svg version="1.0" xmlns="http://www.w3.org/2000/svg"
 width="724.000000pt" height="695.000000pt" viewBox="0 0 724.000000 695.000000"
 preserveAspectRatio="xMidYMid meet">

<g transform="translate(0.000000,695.000000) scale(0.100000,-0.100000)"
fill="#000000" stroke="none">
<path d="M3592 6781 c-23 -173 -90 -329 -228 -533 -136 -201 -293 -375 -549
-606 -292 -264 -347 -316 -414 -396 -93 -110 -177 -241 -218 -342 -34 -84 -68
-227 -59 -251 3 -7 18 -13 34 -13 98 0 296 -81 444 -181 88 -59 347 -303 335
-315 -2 -3 -36 15 -73 39 -328 210 -663 309 -944 278 -323 -35 -567 -166
-1005 -538 -284 -240 -416 -338 -550 -406 -82 -41 -128 -55 -245 -73 l-85 -13
130 5 c72 2 269 15 440 29 171 13 355 26 410 30 502 31 945 109 1260 222 258
92 474 220 626 372 288 288 476 765 578 1471 42 289 141 1293 129 1305 -2 3
-10 -35 -16 -84z"/>
<path d="M3636 6765 c7 -143 88 -957 114 -1145 88 -632 241 -1086 468 -1390
245 -327 691 -542 1352 -650 148 -24 442 -55 665 -70 88 -6 261 -20 385 -30
300 -26 561 -43 566 -37 3 2 -26 8 -63 12 -200 21 -355 110 -703 401 -255 214
-344 284 -471 369 -202 136 -391 219 -564 245 -101 16 -280 16 -365 1 -183
-33 -427 -135 -610 -255 -55 -36 -100 -62 -100 -58 0 18 193 203 276 266 155
116 387 216 501 216 l34 0 -7 58 c-21 178 -121 374 -287 563 -42 47 -183 182
-314 301 -348 314 -506 485 -658 713 -122 183 -183 331 -210 508 l-14 92 5
-110z"/>
<path d="M4205 4074 c-146 -108 -336 -213 -496 -274 l-86 -32 -69 22 c-117 38
-303 133 -434 221 -69 46 -132 88 -140 93 -8 5 -1 -8 16 -30 140 -180 240
-395 275 -594 9 -56 8 -77 -10 -158 -39 -177 -119 -347 -242 -513 l-62 -83 54
39 c132 95 210 146 299 193 109 59 268 122 304 122 93 0 411 -163 599 -307 31
-24 57 -42 57 -39 0 2 -24 37 -53 76 -152 201 -252 452 -251 625 2 169 112
428 274 643 17 23 30 42 28 42 -1 -1 -30 -21 -63 -46z"/>
<path d="M112 3410 c215 -27 362 -113 743 -430 277 -232 407 -329 543 -411
357 -213 711 -242 1097 -89 94 37 325 155 391 200 26 17 48 29 51 27 8 -9
-204 -215 -278 -271 -155 -115 -315 -190 -467 -216 -84 -15 -82 -11 -53 -135
61 -252 238 -478 676 -862 293 -256 477 -454 602 -645 107 -162 152 -279 181
-468 10 -61 10 -60 6 35 -7 135 -89 954 -114 1140 -72 525 -217 964 -423 1279
-72 111 -241 281 -347 351 -374 247 -900 383 -1710 440 -124 9 -327 25 -452
35 -248 21 -564 36 -446 20z"/>
<path d="M6780 3389 c-113 -10 -333 -27 -490 -39 -157 -11 -346 -27 -420 -36
-860 -96 -1412 -339 -1687 -741 -213 -311 -357 -740 -433 -1283 -25 -183 -107
-1000 -114 -1140 l-5 -105 14 90 c43 262 149 453 411 736 104 114 212 215 459
434 99 88 218 200 265 248 163 170 281 363 320 527 30 129 32 125 -52 140
-212 37 -419 155 -625 354 -62 60 -113 113 -113 117 0 5 26 -8 58 -30 315
-213 662 -321 934 -292 328 36 554 161 1073 596 377 316 539 411 738 434 l72
8 -100 1 c-55 0 -192 -9 -305 -19z"/>
</g>
</svg>
